<?xml version="1.0" encoding="UTF-8"?>
<svg width="700pt" height="700pt" version="1.1" viewBox="0 0 700 700" xmlns="http://www.w3.org/2000/svg" xmlns:xlink="http://www.w3.org/1999/xlink">
 <defs>

 </defs>
 <g>
  <path d="m495.6 414.4c5.9375 0 11.637-2.3594 15.836-6.5586 4.2031-4.2031 6.5625-9.8984 6.5625-15.84v-22.398c0-35.648-14.16-69.832-39.363-95.035-25.207-25.207-59.391-39.367-95.035-39.367h-136.3l51.352-51.352c5.6602-5.6602 7.8711-13.914 5.8008-21.648-2.0742-7.7344-8.1133-13.777-15.848-15.848-7.7344-2.0742-15.988 0.13672-21.648 5.8008l-70.449 70.504c-9.2773 9.2734-14.488 21.855-14.488 34.973 0 13.117 5.2109 25.695 14.488 34.973l76.047 76.047c5.6641 5.6602 13.914 7.8711 21.648 5.8008 7.7344-2.0742 13.777-8.1133 15.848-15.848 2.0742-7.7344-0.13672-15.988-5.8008-21.648l-56.949-56.953h136.3c23.762 0 46.551 9.4414 63.355 26.242 16.805 16.805 26.242 39.594 26.242 63.359v22.398c0 5.9414 2.3594 11.637 6.5625 15.84 4.1992 4.1992 9.8984 6.5586 15.84 6.5586z"/>
  <use x="70" y="644" xlink:href="#g"/>
  <use x="90.550781" y="644" xlink:href="#a"/>
  <use x="104.359375" y="644" xlink:href="#b"/>
  <use x="123.347656" y="644" xlink:href="#e"/>
  <use x="142.242188" y="644" xlink:href="#d"/>
  <use x="155.628906" y="644" xlink:href="#b"/>
  <use x="174.617188" y="644" xlink:href="#k"/>
  <use x="204.410156" y="644" xlink:href="#j"/>
  <use x="224.453125" y="644" xlink:href="#i"/>
  <use x="252.453125" y="644" xlink:href="#h"/>
  <use x="275.433594" y="644" xlink:href="#a"/>
  <use x="289.242188" y="644" xlink:href="#b"/>
  <use x="308.234375" y="644" xlink:href="#u"/>
  <use x="328.273438" y="644" xlink:href="#c"/>
  <use x="347.511719" y="644" xlink:href="#a"/>
  <use x="371.070312" y="644" xlink:href="#g"/>
  <use x="391.617188" y="644" xlink:href="#a"/>
  <use x="405.425781" y="644" xlink:href="#b"/>
  <use x="424.414062" y="644" xlink:href="#t"/>
  <use x="441.082031" y="644" xlink:href="#f"/>
  <use x="461.015625" y="644" xlink:href="#e"/>
  <use x="479.910156" y="644" xlink:href="#a"/>
  <use x="70" y="672" xlink:href="#s"/>
  <use x="82.183594" y="672" xlink:href="#a"/>
  <use x="95.992188" y="672" xlink:href="#c"/>
  <use x="115.226562" y="672" xlink:href="#r"/>
  <use x="154.152344" y="672" xlink:href="#d"/>
  <use x="167.535156" y="672" xlink:href="#q"/>
  <use x="187.46875" y="672" xlink:href="#b"/>
  <use x="216.207031" y="672" xlink:href="#p"/>
  <use x="239.640625" y="672" xlink:href="#c"/>
  <use x="258.878906" y="672" xlink:href="#o"/>
  <use x="278.8125" y="672" xlink:href="#f"/>
  <use x="308.492188" y="672" xlink:href="#n"/>
  <use x="329.015625" y="672" xlink:href="#a"/>
  <use x="342.820312" y="672" xlink:href="#c"/>
  <use x="362.058594" y="672" xlink:href="#m"/>
  <use x="371.65625" y="672" xlink:href="#b"/>
  <use x="390.648438" y="672" xlink:href="#l"/>
  <use x="407.242188" y="672" xlink:href="#d"/>
 </g>
</svg>
