<?xml version="1.0" encoding="UTF-8"?>
<svg width="700pt" height="700pt" version="1.1" viewBox="0 0 700 700" xmlns="http://www.w3.org/2000/svg" xmlns:xlink="http://www.w3.org/1999/xlink">
 <defs>

 </defs>
 <g>
  <path d="m223.29 89.934 316.79 316.79c17.496 17.496 14.184 49.176 0 63.355-17.496 17.496-45.859 17.496-63.355 0l-316.79-316.79c-17.496-17.496-14.184-49.176 0-63.355 17.496-17.496 45.859-17.496 63.355 0z"/>
  <path d="m159.93 406.71 316.79-316.79c17.496-17.496 49.176-14.184 63.355 0 17.496 17.496 17.496 45.859 0 63.355l-316.79 316.79c-17.496 17.496-49.176 14.184-63.355 0-17.496-17.496-17.496-45.859 0-63.355z"/>
  <use x="70" y="644" xlink:href="#u"/>
  <use x="90.550781" y="644" xlink:href="#c"/>
  <use x="104.359375" y="644" xlink:href="#d"/>
  <use x="123.347656" y="644" xlink:href="#b"/>
  <use x="142.242188" y="644" xlink:href="#a"/>
  <use x="155.628906" y="644" xlink:href="#d"/>
  <use x="174.617188" y="644" xlink:href="#k"/>
  <use x="204.410156" y="644" xlink:href="#j"/>
  <use x="224.453125" y="644" xlink:href="#i"/>
  <use x="252.453125" y="644" xlink:href="#f"/>
  <use x="272.972656" y="644" xlink:href="#c"/>
  <use x="286.78125" y="644" xlink:href="#b"/>
  <use x="305.675781" y="644" xlink:href="#t"/>
  <use x="322.34375" y="644" xlink:href="#b"/>
  <use x="341.234375" y="644" xlink:href="#h"/>
  <use x="361.171875" y="644" xlink:href="#a"/>
  <use x="374.554688" y="644" xlink:href="#b"/>
  <use x="403.195312" y="644" xlink:href="#s"/>
  <use x="424.894531" y="644" xlink:href="#c"/>
  <use x="448.453125" y="644" xlink:href="#r"/>
  <use x="471.695312" y="644" xlink:href="#g"/>
  <use x="491.625" y="644" xlink:href="#a"/>
  <use x="505.011719" y="644" xlink:href="#a"/>
  <use x="518.398437" y="644" xlink:href="#b"/>
  <use x="70" y="672" xlink:href="#q"/>
  <use x="82.183594" y="672" xlink:href="#c"/>
  <use x="95.992188" y="672" xlink:href="#e"/>
  <use x="115.226562" y="672" xlink:href="#p"/>
  <use x="154.152344" y="672" xlink:href="#a"/>
  <use x="167.535156" y="672" xlink:href="#o"/>
  <use x="187.46875" y="672" xlink:href="#d"/>
  <use x="216.207031" y="672" xlink:href="#n"/>
  <use x="239.640625" y="672" xlink:href="#e"/>
  <use x="258.878906" y="672" xlink:href="#g"/>
  <use x="278.8125" y="672" xlink:href="#h"/>
  <use x="308.492188" y="672" xlink:href="#f"/>
  <use x="329.015625" y="672" xlink:href="#c"/>
  <use x="342.820312" y="672" xlink:href="#e"/>
  <use x="362.058594" y="672" xlink:href="#m"/>
  <use x="371.65625" y="672" xlink:href="#d"/>
  <use x="390.648438" y="672" xlink:href="#l"/>
  <use x="407.242188" y="672" xlink:href="#a"/>
 </g>
</svg>
