<?xml version="1.0" encoding="UTF-8"?>
<svg width="700pt" height="700pt" version="1.1" viewBox="0 0 700 700" xmlns="http://www.w3.org/2000/svg">
 <g>
  <path d="m248.71 295.26-16.148 59.207c-3.332 12.27 0.035156 24.961 9.0234 33.949 6.7148 6.707 15.465 10.281 24.574 10.281 3.1094 0 6.2734-0.41797 9.3828-1.2656l59.199-16.141h0.015625c14.645-4 28.078-11.801 38.828-22.551l200.22-200.21c28.199-28.207 28.199-74.109 0-102.33-28.23-28.215-74.137-28.215-102.33 0l-200.22 200.22c-10.73 10.738-18.527 24.172-22.543 38.844zm300.36-214.32c14.559 14.57 14.559 38.273 0 52.84l-200.22 200.21c-6.4609 6.4531-14.508 11.125-23.293 13.527l-59.219 16.152 16.148-59.191c2.4102-8.8164 7.0742-16.887 13.52-23.328l200.23-200.21c7.2812-7.2812 16.852-10.922 26.422-10.922 9.5664 0 19.137 3.6406 26.418 10.922z"/>
  <path d="m192.5 525h274.75c48.246 0 87.5-39.254 87.5-87.5v-168.17c0-9.6641-7.8281-17.5-17.5-17.5s-17.5 7.8359-17.5 17.5v168.17c0 28.949-23.551 52.5-52.5 52.5h-274.75c-28.949 0-52.5-23.551-52.5-52.5v-274.75c0-28.949 23.551-52.5 52.5-52.5h168.18c9.6719 0 17.5-7.8359 17.5-17.5 0-9.6641-7.8281-17.5-17.5-17.5h-168.18c-48.246 0-87.5 39.254-87.5 87.5v274.75c0 48.246 39.254 87.5 87.5 87.5z"/>
 </g>
</svg>
